Coordinates
version=1
nRows=11
nColumns=40
inDegrees=yes

Units are S.I. units (second, meters, Newtons, ...)
If the header above contains a line with 'inDegrees', this indicates whether rotational values are in degrees (yes) or radians (no).

endheader
time	pelvis_tilt	pelvis_list	pelvis_rotation	pelvis_tx	pelvis_ty	pelvis_tz	hip_flexion_r	hip_adduction_r	hip_rotation_r	knee_angle_r	knee_angle_r_beta	ankle_angle_r	subtalar_angle_r	mtp_angle_r	hip_flexion_l	hip_adduction_l	hip_rotation_l	knee_angle_l	knee_angle_l_beta	ankle_angle_l	subtalar_angle_l	mtp_angle_l	lumbar_extension	lumbar_bending	lumbar_rotation	arm_flex_r	arm_add_r	arm_rot_r	elbow_flex_r	pro_sup_r	wrist_flex_r	wrist_dev_r	arm_flex_l	arm_add_l	arm_rot_l	elbow_flex_l	pro_sup_l	wrist_flex_l	wrist_dev_l
      1.81000000	     -1.17580389	     -9.30667072	     89.70245403	      0.21720335	      1.00018579	     -1.23988074	     32.44541611	     -1.29830356	     -4.01951940	     41.58976924	      0.72587841	      2.20420179	      0.00000000	      0.00000000	      5.57887268	      3.90063400	      3.12099591	      3.05575367	      0.05333296	      4.10596469	      0.00000000	      0.00000000	      1.09349306	     -2.43235389	     -4.07635492	      0.00000000	      0.00000000	      0.00000000	      0.00000000	      0.00000000	      0.00000000	      0.00000000	      0.00000000	      0.00000000	      0.00000000	      0.00000000	      0.00000000	      0.00000000	      0.00000000
      1.82000000	     -1.19250734	     -9.18940756	     89.76513832	      0.21694851	      0.99906607	     -1.25752498	     32.86784316	     -1.32101600	     -4.46456927	     38.08158895	      0.66464911	      2.35320506	      0.00000000	      0.00000000	      3.89393999	      3.95024809	      3.38291872	      2.29907335	      0.04012640	      4.79760984	      0.00000000	      0.00000000	      0.97504067	     -2.43984614	     -4.05552110	      0.00000000	      0.00000000	      0.00000000	      0.00000000	      0.00000000	      0.00000000	      0.00000000	      0.00000000	      0.00000000	      0.00000000	      0.00000000	      0.00000000	      0.00000000	      0.00000000
      1.83000000	     -1.30180249	     -9.07416095	     89.81145946	      0.21675087	      0.99731162	     -1.27522523	     33.21081165	     -1.42214669	     -4.93193516	     34.42251439	      0.60078621	      2.43976915	      0.00000000	      0.00000000	      2.23934977	      4.09461888	      3.60300456	      1.60669240	      0.02804207	      5.50965767	      0.00000000	      0.00000000	      0.86009615	     -2.56756113	     -4.08396760	      0.00000000	      0.00000000	      0.00000000	      0.00000000	      0.00000000	      0.00000000	      0.00000000	      0.00000000	      0.00000000	      0.00000000	      0.00000000	      0.00000000	      0.00000000	      0.00000000
      1.84000000	     -1.50073261	     -9.10102300	     89.84549600	      0.21660564	      0.99476521	     -1.29286194	     33.67047895	     -1.59572447	     -5.42009586	     30.68545975	      0.53556231	      2.40974964	      0.00000000	      0.00000000	      0.78561855	      4.33797521	      3.80609593	      1.01421228	      0.01770134	      6.33734865	      0.00000000	      0.00000000	      0.90296672	     -2.79182263	     -4.11902620	      0.00000000	      0.00000000	      0.00000000	      0.00000000	      0.00000000	      0.00000000	      0.00000000	      0.00000000	      0.00000000	      0.00000000	      0.00000000	      0.00000000	      0.00000000	      0.00000000
      1.85000000	     -1.75186952	     -8.99499547	     89.87025563	      0.21653580	      0.99189047	     -1.31062237	     33.90774743	     -1.80007700	     -5.97344688	     26.81166149	      0.46795177	      2.24607728	      0.00000000	     -0.00000000	     -0.79715350	      4.63390497	      3.95150892	      0.47688195	      0.00832316	      7.12002422	     -0.00000000	     -0.00000000	      0.76955985	     -3.07294412	     -4.12074582	      0.00000000	      0.00000000	     -0.00000000	      0.00000000	      0.00000000	     -0.00000000	      0.00000000	     -0.00000000	     -0.00000000	      0.00000000	      0.00000000	      0.00000000	     -0.00000000	     -0.00000000
      1.86000000	     -2.04761728	     -8.83828639	     89.88837514	      0.21657289	      0.98859810	     -1.32846360	     34.04241169	     -2.02029013	     -6.59872975	     22.89848597	      0.39965397	      2.07999256	      0.00000000	      0.00000000	     -2.42198516	      4.97142976	      4.00197076	     -0.04350401	     -0.00075929	      7.83929213	      0.00000000	      0.00000000	      0.56550189	     -3.42778524	     -4.13339777	      0.00000000	      0.00000000	      0.00000000	      0.00000000	      0.00000000	      0.00000000	      0.00000000	      0.00000000	      0.00000000	      0.00000000	      0.00000000	      0.00000000	      0.00000000	      0.00000000
      1.87000000	     -2.39572213	     -8.85183068	     89.90230215	      0.21668680	      0.98465161	     -1.34626206	     34.34415854	     -2.24720812	     -7.22055914	     19.00546788	      0.33170799	      1.80649976	      0.00000000	      0.00000000	     -3.78675148	      5.36029278	      4.08495291	     -0.39265233	     -0.00685308	      8.66847938	      0.00000000	      0.00000000	      0.54946027	     -3.84670239	     -4.12671317	      0.00000000	      0.00000000	      0.00000000	      0.00000000	      0.00000000	      0.00000000	      0.00000000	      0.00000000	      0.00000000	      0.00000000	      0.00000000	      0.00000000	      0.00000000	      0.00000000
      1.88000000	     -2.82038902	     -9.09818916	     89.91349983	      0.21684400	      0.98002919	     -1.36401620	     34.91731039	     -2.49266318	     -7.66179847	     15.25284343	      0.26621234	      1.70696336	      0.00000000	     -0.00000000	     -4.83913482	      5.82026030	      4.20611165	     -0.61378470	     -0.01071256	      9.49256022	     -0.00000000	      0.00000000	      0.79947548	     -4.34047986	     -4.20438010	      0.00000000	     -0.00000000	     -0.00000000	      0.00000000	      0.00000000	      0.00000000	      0.00000000	      0.00000000	      0.00000000	      0.00000000	      0.00000000	      0.00000000	     -0.00000000	     -0.00000000
      1.89000000	     -3.21690124	     -9.23562764	     89.92146242	      0.21707091	      0.97528583	     -1.38197797	     35.32710083	     -2.66940228	     -8.06537522	     11.61063816	      0.20264386	      1.58766812	      0.00000000	      0.00000000	     -6.00450132	      6.23850075	      4.30281392	     -0.79178683	     -0.01381929	     10.30898352	      0.00000000	      0.00000000	      0.92177636	     -4.79497324	     -4.23512249	      0.00000000	      0.00000000	      0.00000000	      0.00000000	      0.00000000	      0.00000000	      0.00000000	      0.00000000	      0.00000000	      0.00000000	      0.00000000	      0.00000000	      0.00000000	      0.00000000
      1.90000000	     -3.50964647	     -9.17699351	     89.92816350	      0.21752181	      0.97064647	     -1.40027999	     35.47129291	     -2.69583526	     -8.34090311	      8.17725471	      0.14272002	      1.47889294	      0.00000000	     -0.00000000	     -7.40730296	      6.51322984	      4.35884447	     -0.98435718	     -0.01718027	     11.07868137	     -0.00000000	      0.00000000	      0.82807980	     -5.15733508	     -4.23478182	     -0.00000000	     -0.00000000	     -0.00000000	      0.00000000	      0.00000000	     -0.00000000	      0.00000000	     -0.00000000	      0.00000000	      0.00000000	      0.00000000	      0.00000000	      0.00000000	     -0.00000000
      1.91000000	     -3.88558892	     -9.40770157	     89.93330084	      0.21791987	      0.96553157	     -1.41855458	     35.98059561	     -2.79392174	     -8.21408787	      5.20672491	      0.09087449	      1.64642317	      0.00000000	      0.00000000	     -8.39424581	      6.86268166	      4.52408467	     -0.95741959	     -0.01671012	     11.84093675	      0.00000000	      0.00000000	      1.06818924	     -5.59295649	     -4.27774147	      0.00000000	      0.00000000	      0.00000000	      0.00000000	      0.00000000	      0.00000000	      0.00000000	      0.00000000	      0.00000000	      0.00000000	      0.00000000	      0.00000000	      0.00000000	      0.00000000
